<?xml version="1.0" encoding="UTF-8"?>
<svg id="Layer_2" data-name="Layer 2" xmlns="http://www.w3.org/2000/svg" viewBox="0 0 219.06 219.09">
  <defs>
    <style>
      .cls-1 {
        fill: #5f3f3b;
      }
    </style>
  </defs>
  <g id="Layer_1-2" data-name="Layer 1">
    <g>
      <path class="cls-1" d="M59.74,13.08c5.91-.87,12.31,3.58,13.51,9.38,2.34,11.3-9.17,14.67-16.27,20.14C3.1,84.2,19.12,172,84.67,191.05c77.8,22.61,140.38-63.62,94.66-129.91-9.15-13.26-16.13-16.15-27.87-25.38-12.35-9.72-2.04-27.14,11.72-21.47,15.16,6.26,34.02,27.92,41.87,42.13,44.64,80.81-23.92,176.47-114.53,161.03C12.44,204.13-26.07,112.64,19.56,47.19c6.85-9.83,28.35-32.35,40.18-34.1Z"/>
      <path class="cls-1" d="M118.17,3.43c1.37,1.37,3.03,4.91,3.27,6.86l-.02,101.27c-2.14,13.59-20.77,14.15-23.95.7l-.06-101.97c1.57-9.58,13.85-13.77,20.76-6.86Z"/>
    </g>
  </g>
</svg>