<svg width="127" height="98" viewBox="0 0 127 98" fill="none" xmlns="http://www.w3.org/2000/svg">
<path d="M125.992 7.9934L91.1153 0.0251205C91.0422 0.00842641 90.9675 0 90.8926 0H78.7386C78.35 0 77.9978 0.230016 77.8177 0.574354C72.1476 11.4118 54.2796 10.8207 49.1838 1.25921C49.0004 0.915241 48.6489 0.685315 48.2591 0.685315H36.1074C36.0325 0.685315 35.9578 0.693741 35.8847 0.710435L1.00834 8.67871C0.457041 8.80467 0.11978 9.36235 0.264265 9.90909L7.95299 39.0037C8.06895 39.4426 8.46591 39.7483 8.9198 39.7483H25.4017C25.9861 39.7483 26.4459 40.2472 26.3984 40.8296L21.8216 96.9097C21.7738 97.4954 22.2389 97.9958 22.8265 97.991L104.191 97.3235C104.772 97.3187 105.227 96.8214 105.18 96.2422L100.602 40.1443C100.554 39.5619 101.014 39.0629 101.598 39.0629H118.08C118.534 39.0629 118.931 38.7573 119.047 38.3184L126.736 9.22377C126.88 8.67703 126.543 8.11936 125.992 7.9934Z" fill="#42306A"/>
<mask id="mask0_32_1273" style="mask-type:luminance" maskUnits="userSpaceOnUse" x="0" y="0" width="127" height="98">
<path d="M125.992 7.9934L91.1153 0.0251205C91.0423 0.00842641 90.9676 0 90.8926 0H78.7387C78.3501 0 77.9978 0.230016 77.8177 0.574354C72.1476 11.4118 54.2797 10.8207 49.1838 1.25921C49.0005 0.915241 48.6489 0.685315 48.2591 0.685315H36.1075C36.0325 0.685315 35.9578 0.693741 35.8847 0.710435L1.00838 8.67871C0.457076 8.80467 0.119815 9.36235 0.2643 9.90909L7.95302 39.0037C8.06899 39.4426 8.46595 39.7483 8.91983 39.7483H25.4017C25.9861 39.7483 26.4459 40.2472 26.3984 40.8296L21.8216 96.9097C21.7738 97.4954 22.2389 97.9958 22.8265 97.991L104.191 97.3235C104.772 97.3187 105.227 96.8214 105.18 96.2422L100.602 40.1443C100.554 39.5619 101.014 39.0629 101.598 39.0629H118.08C118.534 39.0629 118.931 38.7573 119.047 38.3184L126.736 9.22377C126.88 8.67703 126.543 8.11936 125.992 7.9934Z" fill="white"/>
</mask>
<g mask="url(#mask0_32_1273)">
<rect x="-2" y="79" width="137" height="19" fill="#9C75A2"/>
<rect x="-2" y="59" width="137" height="21" fill="#9C75A2"/>
</g>
</svg>
